<mxfile host="app.diagrams.net" modified="2023-07-26T13:31:23.173Z" agent="Mozilla/5.0 (Macintosh; Intel Mac OS X 10_15_7) AppleWebKit/605.1.15 (KHTML, like Gecko) Version/16.6 Safari/605.1.15" etag="r6L04_uUU0e0bNghj0J2" version="21.6.5" type="device" pages="2">
  <diagram id="z6GFneZXsX3bLya3yXDJ" name="Page-1">
    <mxGraphModel dx="1183" dy="696" grid="1" gridSize="10" guides="1" tooltips="1" connect="1" arrows="1" fold="1" page="1" pageScale="1" pageWidth="850" pageHeight="1100" math="0" shadow="0">
      <root>
        <mxCell id="0" />
        <mxCell id="1" parent="0" />
        <mxCell id="SzNj9BPnzzM-rA3rZb6I-1" value="Hash Table" style="shape=table;startSize=30;container=1;collapsible=0;childLayout=tableLayout;fixedRows=1;rowLines=1;fontStyle=1;rounded=0;shadow=0;swimlaneLine=1;resizeWidth=0;top=1;" parent="1" vertex="1">
          <mxGeometry x="370" y="50" width="100" height="150" as="geometry" />
        </mxCell>
        <mxCell id="SzNj9BPnzzM-rA3rZb6I-2" value="" style="shape=tableRow;horizontal=0;startSize=0;swimlaneHead=0;swimlaneBody=0;top=0;left=0;bottom=0;right=0;collapsible=0;dropTarget=0;fillColor=none;points=[[0,0.5],[1,0.5]];portConstraint=eastwest;" parent="SzNj9BPnzzM-rA3rZb6I-1" vertex="1">
          <mxGeometry y="30" width="100" height="20" as="geometry" />
        </mxCell>
        <mxCell id="SzNj9BPnzzM-rA3rZb6I-3" value="..." style="shape=partialRectangle;html=1;whiteSpace=wrap;connectable=0;fillColor=none;top=0;left=0;bottom=0;right=0;overflow=hidden;pointerEvents=1;" parent="SzNj9BPnzzM-rA3rZb6I-2" vertex="1">
          <mxGeometry width="27" height="20" as="geometry">
            <mxRectangle width="27" height="20" as="alternateBounds" />
          </mxGeometry>
        </mxCell>
        <mxCell id="SzNj9BPnzzM-rA3rZb6I-4" value="..." style="shape=partialRectangle;html=1;whiteSpace=wrap;connectable=0;fillColor=none;top=0;left=0;bottom=0;right=0;align=left;spacingLeft=6;overflow=hidden;strokeWidth=2;perimeterSpacing=2;" parent="SzNj9BPnzzM-rA3rZb6I-2" vertex="1">
          <mxGeometry x="27" width="73" height="20" as="geometry">
            <mxRectangle width="73" height="20" as="alternateBounds" />
          </mxGeometry>
        </mxCell>
        <mxCell id="SzNj9BPnzzM-rA3rZb6I-5" value="" style="shape=tableRow;horizontal=0;startSize=0;swimlaneHead=0;swimlaneBody=0;top=0;left=0;bottom=0;right=0;collapsible=0;dropTarget=0;fillColor=none;points=[[0,0.5],[1,0.5]];portConstraint=eastwest;" parent="SzNj9BPnzzM-rA3rZb6I-1" vertex="1">
          <mxGeometry y="50" width="100" height="30" as="geometry" />
        </mxCell>
        <mxCell id="SzNj9BPnzzM-rA3rZb6I-6" value="&lt;b&gt;2&lt;/b&gt;" style="shape=partialRectangle;html=1;whiteSpace=wrap;connectable=0;fillColor=#CCCCCC;top=1;left=1;bottom=1;right=1;overflow=hidden;gradientColor=none;perimeterSpacing=5;strokeWidth=1;shadow=0;" parent="SzNj9BPnzzM-rA3rZb6I-5" vertex="1">
          <mxGeometry width="27" height="30" as="geometry">
            <mxRectangle width="27" height="30" as="alternateBounds" />
          </mxGeometry>
        </mxCell>
        <mxCell id="SzNj9BPnzzM-rA3rZb6I-7" value="&lt;b&gt;SNIC02_IP&lt;/b&gt;" style="shape=partialRectangle;html=1;whiteSpace=wrap;connectable=0;fillColor=#CCCCCC;top=1;left=1;bottom=1;right=1;align=left;spacingLeft=6;overflow=hidden;strokeColor=default;strokeWidth=1;" parent="SzNj9BPnzzM-rA3rZb6I-5" vertex="1">
          <mxGeometry x="27" width="73" height="30" as="geometry">
            <mxRectangle width="73" height="30" as="alternateBounds" />
          </mxGeometry>
        </mxCell>
        <mxCell id="SzNj9BPnzzM-rA3rZb6I-8" value="" style="shape=tableRow;horizontal=0;startSize=0;swimlaneHead=0;swimlaneBody=0;top=0;left=0;bottom=0;right=0;collapsible=0;dropTarget=0;fillColor=none;points=[[0,0.5],[1,0.5]];portConstraint=eastwest;" parent="SzNj9BPnzzM-rA3rZb6I-1" vertex="1">
          <mxGeometry y="80" width="100" height="20" as="geometry" />
        </mxCell>
        <mxCell id="SzNj9BPnzzM-rA3rZb6I-9" value="..." style="shape=partialRectangle;html=1;whiteSpace=wrap;connectable=0;fillColor=none;top=0;left=0;bottom=0;right=0;overflow=hidden;" parent="SzNj9BPnzzM-rA3rZb6I-8" vertex="1">
          <mxGeometry width="27" height="20" as="geometry">
            <mxRectangle width="27" height="20" as="alternateBounds" />
          </mxGeometry>
        </mxCell>
        <mxCell id="SzNj9BPnzzM-rA3rZb6I-10" value="..." style="shape=partialRectangle;html=1;whiteSpace=wrap;connectable=0;fillColor=none;top=0;left=0;bottom=0;right=0;align=left;spacingLeft=6;overflow=hidden;" parent="SzNj9BPnzzM-rA3rZb6I-8" vertex="1">
          <mxGeometry x="27" width="73" height="20" as="geometry">
            <mxRectangle width="73" height="20" as="alternateBounds" />
          </mxGeometry>
        </mxCell>
        <mxCell id="SzNj9BPnzzM-rA3rZb6I-19" style="shape=tableRow;horizontal=0;startSize=0;swimlaneHead=0;swimlaneBody=0;top=0;left=0;bottom=0;right=0;collapsible=0;dropTarget=0;fillColor=none;points=[[0,0.5],[1,0.5]];portConstraint=eastwest;" parent="SzNj9BPnzzM-rA3rZb6I-1" vertex="1">
          <mxGeometry y="100" width="100" height="30" as="geometry" />
        </mxCell>
        <mxCell id="SzNj9BPnzzM-rA3rZb6I-20" value="&lt;b&gt;N-1&lt;/b&gt;" style="shape=partialRectangle;html=1;whiteSpace=wrap;connectable=0;fillColor=#CCCCCC;top=1;left=1;bottom=1;right=1;overflow=hidden;strokeWidth=1;" parent="SzNj9BPnzzM-rA3rZb6I-19" vertex="1">
          <mxGeometry width="27" height="30" as="geometry">
            <mxRectangle width="27" height="30" as="alternateBounds" />
          </mxGeometry>
        </mxCell>
        <mxCell id="SzNj9BPnzzM-rA3rZb6I-21" value="&lt;b&gt;Host04_IP&lt;/b&gt;" style="shape=partialRectangle;html=1;whiteSpace=wrap;connectable=0;fillColor=#CCCCCC;top=1;left=1;bottom=1;right=1;align=left;spacingLeft=6;overflow=hidden;" parent="SzNj9BPnzzM-rA3rZb6I-19" vertex="1">
          <mxGeometry x="27" width="73" height="30" as="geometry">
            <mxRectangle width="73" height="30" as="alternateBounds" />
          </mxGeometry>
        </mxCell>
        <mxCell id="SzNj9BPnzzM-rA3rZb6I-22" style="shape=tableRow;horizontal=0;startSize=0;swimlaneHead=0;swimlaneBody=0;top=0;left=0;bottom=0;right=0;collapsible=0;dropTarget=0;fillColor=none;points=[[0,0.5],[1,0.5]];portConstraint=eastwest;" parent="SzNj9BPnzzM-rA3rZb6I-1" vertex="1">
          <mxGeometry y="130" width="100" height="20" as="geometry" />
        </mxCell>
        <mxCell id="SzNj9BPnzzM-rA3rZb6I-23" value="N" style="shape=partialRectangle;html=1;whiteSpace=wrap;connectable=0;fillColor=none;top=0;left=0;bottom=0;right=0;overflow=hidden;" parent="SzNj9BPnzzM-rA3rZb6I-22" vertex="1">
          <mxGeometry width="27" height="20" as="geometry">
            <mxRectangle width="27" height="20" as="alternateBounds" />
          </mxGeometry>
        </mxCell>
        <mxCell id="SzNj9BPnzzM-rA3rZb6I-24" value="..." style="shape=partialRectangle;html=1;whiteSpace=wrap;connectable=0;fillColor=none;top=0;left=0;bottom=0;right=0;align=left;spacingLeft=6;overflow=hidden;" parent="SzNj9BPnzzM-rA3rZb6I-22" vertex="1">
          <mxGeometry x="27" width="73" height="20" as="geometry">
            <mxRectangle width="73" height="20" as="alternateBounds" />
          </mxGeometry>
        </mxCell>
        <mxCell id="SzNj9BPnzzM-rA3rZb6I-11" value="Packet Header" style="swimlane;fontStyle=1;childLayout=stackLayout;horizontal=1;startSize=30;horizontalStack=0;resizeParent=1;resizeParentMax=0;resizeLast=0;collapsible=1;marginBottom=0;" parent="1" vertex="1">
          <mxGeometry x="30" y="90" width="100" height="120" as="geometry" />
        </mxCell>
        <mxCell id="SzNj9BPnzzM-rA3rZb6I-12" value="Src. IP, Src. Port" style="text;strokeColor=none;fillColor=none;align=left;verticalAlign=middle;spacingLeft=4;spacingRight=4;overflow=hidden;points=[[0,0.5],[1,0.5]];portConstraint=eastwest;rotatable=0;" parent="SzNj9BPnzzM-rA3rZb6I-11" vertex="1">
          <mxGeometry y="30" width="100" height="30" as="geometry" />
        </mxCell>
        <mxCell id="SzNj9BPnzzM-rA3rZb6I-13" value="Dst. IP, Dst. Port" style="text;strokeColor=none;fillColor=none;align=left;verticalAlign=middle;spacingLeft=4;spacingRight=4;overflow=hidden;points=[[0,0.5],[1,0.5]];portConstraint=eastwest;rotatable=0;" parent="SzNj9BPnzzM-rA3rZb6I-11" vertex="1">
          <mxGeometry y="60" width="100" height="30" as="geometry" />
        </mxCell>
        <mxCell id="SzNj9BPnzzM-rA3rZb6I-14" value="Protocol Number" style="text;strokeColor=none;fillColor=none;align=left;verticalAlign=middle;spacingLeft=4;spacingRight=4;overflow=hidden;points=[[0,0.5],[1,0.5]];portConstraint=eastwest;rotatable=0;" parent="SzNj9BPnzzM-rA3rZb6I-11" vertex="1">
          <mxGeometry y="90" width="100" height="30" as="geometry" />
        </mxCell>
        <mxCell id="SzNj9BPnzzM-rA3rZb6I-18" style="edgeStyle=orthogonalEdgeStyle;rounded=0;orthogonalLoop=1;jettySize=auto;html=1;entryX=0;entryY=0.5;entryDx=0;entryDy=0;fontSize=14;strokeWidth=2;" parent="1" source="SzNj9BPnzzM-rA3rZb6I-15" target="SzNj9BPnzzM-rA3rZb6I-17" edge="1">
          <mxGeometry relative="1" as="geometry" />
        </mxCell>
        <mxCell id="SzNj9BPnzzM-rA3rZb6I-15" value="&lt;span style=&quot;caret-color: rgba(0, 0, 0, 0); color: rgba(0, 0, 0, 0); font-family: monospace; font-size: 0px; text-align: start;&quot;&gt;%3CmxGraphModel%3E%3Croot%3E%3CmxCell%20id%3D%220%22%2F%3E%3CmxCell%20id%3D%221%22%20parent%3D%220%22%2F%3E%3CmxCell%20id%3D%222%22%20value%3D%22%22%20style%3D%22shape%3Dimage%3Bhtml%3D1%3BverticalAlign%3Dtop%3BverticalLabelPosition%3Dbottom%3BlabelBackgroundColor%3D%23ffffff%3BimageAspect%3D0%3Baspect%3Dfixed%3Bimage%3Dhttps%3A%2F%2Fcdn3.iconfinder.com%2Fdata%2Ficons%2Fmodern-electronic-outline%2F64%2FElectronic__18-blender-128.png%3Bshadow%3D0%3Bsketch%3D0%3BfontSize%3D14%3BstrokeWidth%3D2%3BfillColor%3D%23CCCCCC%3BgradientColor%3Dnone%3B%22%20vertex%3D%221%22%20parent%3D%221%22%3E%3CmxGeometry%20x%3D%22150%22%20y%3D%22320%22%20width%3D%22128%22%20height%3D%22128%22%20as%3D%22geometry%22%2F%3E%3C%2FmxCell%3E%3C%2Froot%3E%3C%2FmxGraphModel%3E&lt;/span&gt;" style="ellipse;whiteSpace=wrap;html=1;aspect=fixed;" parent="1" vertex="1">
          <mxGeometry x="162" y="130" width="70" height="70" as="geometry" />
        </mxCell>
        <mxCell id="SzNj9BPnzzM-rA3rZb6I-16" style="edgeStyle=orthogonalEdgeStyle;rounded=0;orthogonalLoop=1;jettySize=auto;html=1;entryX=0;entryY=0.5;entryDx=0;entryDy=0;fontSize=14;strokeWidth=2;" parent="1" source="SzNj9BPnzzM-rA3rZb6I-13" target="SzNj9BPnzzM-rA3rZb6I-15" edge="1">
          <mxGeometry relative="1" as="geometry" />
        </mxCell>
        <mxCell id="SzNj9BPnzzM-rA3rZb6I-17" value="&lt;b&gt;Hash (Index)&lt;/b&gt;" style="rounded=0;whiteSpace=wrap;html=1;fontSize=14;" parent="1" vertex="1">
          <mxGeometry x="262" y="137.5" width="58" height="55" as="geometry" />
        </mxCell>
        <mxCell id="SzNj9BPnzzM-rA3rZb6I-43" value="&lt;b&gt;&lt;font style=&quot;font-size: 12px;&quot;&gt;Bloom Filter&lt;/font&gt;&lt;/b&gt;" style="text;html=1;strokeColor=none;fillColor=none;align=center;verticalAlign=middle;whiteSpace=wrap;rounded=0;fontSize=16;" parent="1" vertex="1">
          <mxGeometry x="198" y="212" width="100" height="30" as="geometry" />
        </mxCell>
        <mxCell id="SzNj9BPnzzM-rA3rZb6I-44" value="" style="curved=1;endArrow=classic;html=1;rounded=0;fontSize=14;strokeWidth=2;exitX=1;exitY=0.5;exitDx=0;exitDy=0;entryX=0;entryY=0.5;entryDx=0;entryDy=0;" parent="1" source="SzNj9BPnzzM-rA3rZb6I-17" target="SzNj9BPnzzM-rA3rZb6I-5" edge="1">
          <mxGeometry width="50" height="50" relative="1" as="geometry">
            <mxPoint x="330" y="70" as="sourcePoint" />
            <mxPoint x="380" y="20" as="targetPoint" />
            <Array as="points" />
          </mxGeometry>
        </mxCell>
        <mxCell id="SzNj9BPnzzM-rA3rZb6I-45" value="" style="curved=1;endArrow=classic;html=1;rounded=0;fontSize=14;strokeWidth=2;exitX=1;exitY=0.5;exitDx=0;exitDy=0;" parent="1" source="SzNj9BPnzzM-rA3rZb6I-17" edge="1">
          <mxGeometry width="50" height="50" relative="1" as="geometry">
            <mxPoint x="360" y="160" as="sourcePoint" />
            <mxPoint x="350" y="210" as="targetPoint" />
            <Array as="points">
              <mxPoint x="350" y="180" />
            </Array>
          </mxGeometry>
        </mxCell>
        <mxCell id="EmPIw5-OtbaAloxmQtAm-20" value="0" style="text;html=1;strokeColor=none;fillColor=none;align=center;verticalAlign=middle;whiteSpace=wrap;rounded=0;shadow=1;sketch=0;fontSize=12;" parent="1" vertex="1">
          <mxGeometry x="303" y="229" width="10" height="20" as="geometry" />
        </mxCell>
        <mxCell id="EmPIw5-OtbaAloxmQtAm-34" value="" style="shape=table;html=1;whiteSpace=wrap;startSize=0;container=1;collapsible=0;childLayout=tableLayout;shadow=0;sketch=0;fontSize=12;strokeWidth=2;fillColor=default;gradientColor=none;" parent="1" vertex="1">
          <mxGeometry x="298" y="212" width="120" height="20" as="geometry" />
        </mxCell>
        <mxCell id="EmPIw5-OtbaAloxmQtAm-35" value="" style="shape=tableRow;horizontal=0;startSize=0;swimlaneHead=0;swimlaneBody=0;top=0;left=0;bottom=0;right=0;collapsible=0;dropTarget=0;fillColor=none;points=[[0,0.5],[1,0.5]];portConstraint=eastwest;shadow=1;sketch=0;fontSize=12;strokeWidth=2;" parent="EmPIw5-OtbaAloxmQtAm-34" vertex="1">
          <mxGeometry width="120" height="20" as="geometry" />
        </mxCell>
        <mxCell id="EmPIw5-OtbaAloxmQtAm-36" value="x" style="shape=partialRectangle;html=1;whiteSpace=wrap;connectable=0;fillColor=none;top=0;left=0;bottom=0;right=0;overflow=hidden;shadow=1;sketch=0;fontSize=12;strokeWidth=2;" parent="EmPIw5-OtbaAloxmQtAm-35" vertex="1">
          <mxGeometry width="20" height="20" as="geometry">
            <mxRectangle width="20" height="20" as="alternateBounds" />
          </mxGeometry>
        </mxCell>
        <mxCell id="EmPIw5-OtbaAloxmQtAm-37" value="x" style="shape=partialRectangle;html=1;whiteSpace=wrap;connectable=0;fillColor=none;top=0;left=0;bottom=0;right=0;overflow=hidden;shadow=1;sketch=0;fontSize=12;strokeWidth=2;" parent="EmPIw5-OtbaAloxmQtAm-35" vertex="1">
          <mxGeometry x="20" width="20" height="20" as="geometry">
            <mxRectangle width="20" height="20" as="alternateBounds" />
          </mxGeometry>
        </mxCell>
        <mxCell id="EmPIw5-OtbaAloxmQtAm-47" value="&lt;b&gt;&lt;font style=&quot;font-size: 14px;&quot;&gt;1&lt;/font&gt;&lt;/b&gt;" style="shape=partialRectangle;html=1;whiteSpace=wrap;connectable=0;fillColor=#CCCCCC;top=1;left=1;bottom=1;right=1;overflow=hidden;shadow=0;sketch=0;fontSize=12;strokeWidth=2;gradientColor=none;" parent="EmPIw5-OtbaAloxmQtAm-35" vertex="1">
          <mxGeometry x="40" width="20" height="20" as="geometry">
            <mxRectangle width="20" height="20" as="alternateBounds" />
          </mxGeometry>
        </mxCell>
        <mxCell id="EmPIw5-OtbaAloxmQtAm-50" value="..." style="shape=partialRectangle;html=1;whiteSpace=wrap;connectable=0;fillColor=none;top=0;left=0;bottom=0;right=0;overflow=hidden;shadow=1;sketch=0;fontSize=12;strokeWidth=2;" parent="EmPIw5-OtbaAloxmQtAm-35" vertex="1">
          <mxGeometry x="60" width="20" height="20" as="geometry">
            <mxRectangle width="20" height="20" as="alternateBounds" />
          </mxGeometry>
        </mxCell>
        <mxCell id="EmPIw5-OtbaAloxmQtAm-53" value="&lt;b&gt;&lt;font style=&quot;font-size: 14px;&quot;&gt;1&lt;/font&gt;&lt;/b&gt;" style="shape=partialRectangle;html=1;whiteSpace=wrap;connectable=0;fillColor=#CCCCCC;top=1;left=1;bottom=1;right=1;overflow=hidden;shadow=0;sketch=0;fontSize=12;strokeWidth=2;gradientColor=none;" parent="EmPIw5-OtbaAloxmQtAm-35" vertex="1">
          <mxGeometry x="80" width="20" height="20" as="geometry">
            <mxRectangle width="20" height="20" as="alternateBounds" />
          </mxGeometry>
        </mxCell>
        <mxCell id="EmPIw5-OtbaAloxmQtAm-56" value="x" style="shape=partialRectangle;html=1;whiteSpace=wrap;connectable=0;fillColor=none;top=0;left=0;bottom=0;right=0;overflow=hidden;shadow=1;sketch=0;fontSize=12;strokeWidth=2;" parent="EmPIw5-OtbaAloxmQtAm-35" vertex="1">
          <mxGeometry x="100" width="20" height="20" as="geometry">
            <mxRectangle width="20" height="20" as="alternateBounds" />
          </mxGeometry>
        </mxCell>
        <mxCell id="EmPIw5-OtbaAloxmQtAm-63" value="1" style="text;html=1;strokeColor=none;fillColor=none;align=center;verticalAlign=middle;whiteSpace=wrap;rounded=0;shadow=1;sketch=0;fontSize=12;" parent="1" vertex="1">
          <mxGeometry x="323" y="229" width="10" height="20" as="geometry" />
        </mxCell>
        <mxCell id="EmPIw5-OtbaAloxmQtAm-64" value="2" style="text;html=1;strokeColor=none;fillColor=none;align=center;verticalAlign=middle;whiteSpace=wrap;rounded=0;shadow=1;sketch=0;fontSize=12;" parent="1" vertex="1">
          <mxGeometry x="342" y="229" width="10" height="20" as="geometry" />
        </mxCell>
        <mxCell id="EmPIw5-OtbaAloxmQtAm-66" value="N-1&lt;br&gt;" style="text;html=1;strokeColor=none;fillColor=none;align=center;verticalAlign=middle;whiteSpace=wrap;rounded=0;shadow=1;sketch=0;fontSize=12;" parent="1" vertex="1">
          <mxGeometry x="377" y="229" width="25" height="20" as="geometry" />
        </mxCell>
        <mxCell id="EmPIw5-OtbaAloxmQtAm-68" value="" style="shape=image;html=1;verticalAlign=top;verticalLabelPosition=bottom;labelBackgroundColor=#ffffff;imageAspect=0;aspect=fixed;image=https://cdn3.iconfinder.com/data/icons/modern-electronic-outline/64/Electronic__18-blender-128.png;shadow=0;sketch=0;fontSize=14;strokeWidth=2;fillColor=#CCCCCC;gradientColor=none;" parent="1" vertex="1">
          <mxGeometry x="167" y="135" width="60" height="60" as="geometry" />
        </mxCell>
        <mxCell id="EmPIw5-OtbaAloxmQtAm-73" value="&lt;b&gt;&lt;font style=&quot;font-size: 12px;&quot;&gt;Computing Hash&lt;/font&gt;&lt;/b&gt;" style="text;html=1;strokeColor=none;fillColor=none;align=center;verticalAlign=middle;whiteSpace=wrap;rounded=0;shadow=0;sketch=0;fontSize=14;" parent="1" vertex="1">
          <mxGeometry x="145.5" y="100" width="103" height="30" as="geometry" />
        </mxCell>
      </root>
    </mxGraphModel>
  </diagram>
  <diagram id="CoTDxpubbv2Yw9d-ovCS" name="Page-2">
    <mxGraphModel dx="1183" dy="696" grid="1" gridSize="10" guides="1" tooltips="1" connect="1" arrows="1" fold="1" page="1" pageScale="1" pageWidth="850" pageHeight="1100" math="0" shadow="0">
      <root>
        <mxCell id="0" />
        <mxCell id="1" parent="0" />
        <mxCell id="ryl-W8s21cAbe7zijBVm-1" value="" style="outlineConnect=0;dashed=0;verticalLabelPosition=bottom;verticalAlign=top;align=center;html=1;shape=mxgraph.aws3.classic_load_balancer;fillColor=#F58534;gradientColor=none;" vertex="1" parent="1">
          <mxGeometry x="330" y="174" width="69" height="72" as="geometry" />
        </mxCell>
        <mxCell id="ryl-W8s21cAbe7zijBVm-2" value="" style="image;html=1;image=img/lib/clip_art/computers/Server_128x128.png" vertex="1" parent="1">
          <mxGeometry x="440" y="90" width="80" height="80" as="geometry" />
        </mxCell>
        <mxCell id="ryl-W8s21cAbe7zijBVm-3" value="" style="image;html=1;image=img/lib/clip_art/computers/Server_128x128.png" vertex="1" parent="1">
          <mxGeometry x="440" y="170" width="80" height="80" as="geometry" />
        </mxCell>
        <mxCell id="ryl-W8s21cAbe7zijBVm-4" value="" style="image;html=1;image=img/lib/clip_art/computers/Server_128x128.png" vertex="1" parent="1">
          <mxGeometry x="440" y="300" width="80" height="80" as="geometry" />
        </mxCell>
        <mxCell id="ryl-W8s21cAbe7zijBVm-5" value="" style="endArrow=none;dashed=1;html=1;dashPattern=1 3;strokeWidth=2;rounded=0;" edge="1" parent="1">
          <mxGeometry width="50" height="50" relative="1" as="geometry">
            <mxPoint x="480" y="300" as="sourcePoint" />
            <mxPoint x="480" y="240" as="targetPoint" />
          </mxGeometry>
        </mxCell>
        <mxCell id="ryl-W8s21cAbe7zijBVm-6" value="" style="shape=flexArrow;endArrow=classic;html=1;rounded=0;entryX=0;entryY=0.5;entryDx=0;entryDy=0;exitX=0.855;exitY=0.145;exitDx=0;exitDy=0;exitPerimeter=0;fillColor=#B3B3B3;strokeColor=none;" edge="1" parent="1" source="ryl-W8s21cAbe7zijBVm-1" target="ryl-W8s21cAbe7zijBVm-2">
          <mxGeometry width="50" height="50" relative="1" as="geometry">
            <mxPoint x="350" y="190" as="sourcePoint" />
            <mxPoint x="390" y="190" as="targetPoint" />
          </mxGeometry>
        </mxCell>
        <mxCell id="ryl-W8s21cAbe7zijBVm-9" value="" style="shape=flexArrow;endArrow=classic;html=1;rounded=0;entryX=0;entryY=0.5;entryDx=0;entryDy=0;exitX=1;exitY=0.5;exitDx=0;exitDy=0;exitPerimeter=0;fillColor=#B3B3B3;strokeColor=none;" edge="1" parent="1" source="ryl-W8s21cAbe7zijBVm-1" target="ryl-W8s21cAbe7zijBVm-3">
          <mxGeometry width="50" height="50" relative="1" as="geometry">
            <mxPoint x="290" y="360" as="sourcePoint" />
            <mxPoint x="421" y="270" as="targetPoint" />
          </mxGeometry>
        </mxCell>
        <mxCell id="ryl-W8s21cAbe7zijBVm-10" value="" style="shape=flexArrow;endArrow=classic;html=1;rounded=0;entryX=0.013;entryY=0.35;entryDx=0;entryDy=0;exitX=0.855;exitY=0.855;exitDx=0;exitDy=0;exitPerimeter=0;fillColor=#B3B3B3;strokeColor=none;entryPerimeter=0;" edge="1" parent="1" source="ryl-W8s21cAbe7zijBVm-1" target="ryl-W8s21cAbe7zijBVm-4">
          <mxGeometry width="50" height="50" relative="1" as="geometry">
            <mxPoint x="329" y="240" as="sourcePoint" />
            <mxPoint x="460" y="150" as="targetPoint" />
          </mxGeometry>
        </mxCell>
        <mxCell id="ryl-W8s21cAbe7zijBVm-12" value="" style="shape=flexArrow;endArrow=classic;html=1;rounded=0;entryX=0;entryY=0.5;entryDx=0;entryDy=0;entryPerimeter=0;endWidth=54;endSize=14;width=30;fillColor=#B3B3B3;strokeColor=none;" edge="1" parent="1" target="ryl-W8s21cAbe7zijBVm-1">
          <mxGeometry width="50" height="50" relative="1" as="geometry">
            <mxPoint x="170" y="210" as="sourcePoint" />
            <mxPoint x="120" y="240" as="targetPoint" />
          </mxGeometry>
        </mxCell>
        <mxCell id="ryl-W8s21cAbe7zijBVm-14" value="&lt;b&gt;Load Balancer&lt;/b&gt;" style="text;html=1;align=center;verticalAlign=middle;resizable=0;points=[];autosize=1;strokeColor=none;fillColor=none;" vertex="1" parent="1">
          <mxGeometry x="300.5" y="146" width="110" height="30" as="geometry" />
        </mxCell>
        <mxCell id="ryl-W8s21cAbe7zijBVm-15" value="&lt;b&gt;Servers&lt;/b&gt;" style="text;html=1;align=center;verticalAlign=middle;resizable=0;points=[];autosize=1;strokeColor=none;fillColor=none;" vertex="1" parent="1">
          <mxGeometry x="445" y="70" width="70" height="30" as="geometry" />
        </mxCell>
        <mxCell id="ryl-W8s21cAbe7zijBVm-17" value="&lt;b&gt;Requests or Loads&lt;/b&gt;" style="text;html=1;align=center;verticalAlign=middle;resizable=0;points=[];autosize=1;strokeColor=none;fillColor=none;" vertex="1" parent="1">
          <mxGeometry x="166" y="168" width="130" height="30" as="geometry" />
        </mxCell>
      </root>
    </mxGraphModel>
  </diagram>
</mxfile>
